<?xml version="1.0" encoding="utf-8"?>
<!-- Generator: Adobe Illustrator 13.0.0, SVG Export Plug-In . SVG Version: 6.00 Build 14948)  -->
<!DOCTYPE svg PUBLIC "-//W3C//DTD SVG 1.1//EN" "http://www.w3.org/Graphics/SVG/1.1/DTD/svg11.dtd">
<svg version="1.1" id="Layer_1" xmlns="http://www.w3.org/2000/svg" xmlns:xlink="http://www.w3.org/1999/xlink" x="0px" y="0px"
	 width="45px" height="45px" viewBox="0 0 45 45" enable-background="new 0 0 45 45" xml:space="preserve">
<path fill="none" stroke="#FFFFFF" stroke-width="5" stroke-linecap="round" d="M10.131,5.056H33.34 M10.131,13.5H33.34
	 M10.131,21.944H33.34 M3.5,5.056h0.017 M3.5,13.5h0.017 M3.5,21.944h0.017"/>
<g>
	<circle fill="#FFFFFF" stroke="#000000" stroke-width="2" cx="28" cy="28" r="15"/>
	<path d="M17.375,33.303c0,0.37,0.132,0.683,0.382,0.957c0.255,0.269,0.577,0.392,0.957,0.381h1.318
		c0.903,0,1.776-0.175,2.589-0.529c0.827-0.359,1.532-0.832,2.108-1.429c0.582-0.592,1.055-1.305,1.422-2.124
		c0.363-0.824,0.549-1.678,0.531-2.568c0-1.1,0.383-2.035,1.146-2.807c0.763-0.785,1.707-1.172,2.83-1.172h2.653v1.322
		c0,0.291,0.085,0.549,0.257,0.762c0.171,0.211,0.354,0.369,0.573,0.463c0.213,0.102,0.459,0.129,0.74,0.09
		c0.289-0.047,0.521-0.166,0.703-0.357l2.658-2.658c0.269-0.287,0.393-0.605,0.383-0.957c-0.015-0.354-0.144-0.66-0.383-0.936
		l-2.658-2.652c-0.21-0.201-0.459-0.32-0.726-0.367c-0.269-0.039-0.521-0.01-0.74,0.088c-0.228,0.102-0.416,0.258-0.575,0.465
		c-0.154,0.219-0.232,0.459-0.232,0.75v1.334h-2.653c-0.896,0-1.752,0.176-2.572,0.529c-0.821,0.352-1.526,0.828-2.131,1.404
		c-0.589,0.58-1.063,1.291-1.416,2.127c-0.354,0.828-0.525,1.693-0.515,2.574c0,1.098-0.389,2.048-1.162,2.82
		c-0.785,0.784-1.72,1.171-2.83,1.171h-1.318c-0.371,0-0.683,0.128-0.957,0.385C17.488,32.621,17.365,32.93,17.375,33.303
		L17.375,33.303z M17.375,22.697c0,0.371,0.132,0.682,0.382,0.936c0.255,0.246,0.577,0.383,0.957,0.383h1.318
		c0.621,0,1.194,0.137,1.722,0.406c0.526,0.268,0.983,0.641,1.381,1.096c0.296-0.896,0.735-1.717,1.317-2.438
		c-1.291-1.148-2.762-1.723-4.42-1.723h-1.318c-0.371,0-0.683,0.137-0.957,0.406C17.488,22.031,17.365,22.346,17.375,22.697z
		 M26.261,32.942c1.26,1.128,2.727,1.7,4.396,1.7h2.653v1.335c0,0.285,0.086,0.543,0.259,0.765c0.17,0.228,0.354,0.378,0.573,0.465
		c0.213,0.088,0.457,0.109,0.738,0.07c0.289-0.047,0.521-0.166,0.705-0.365l2.658-2.652c0.269-0.274,0.392-0.585,0.381-0.957
		c-0.015-0.372-0.142-0.672-0.381-0.912l-2.658-2.658c-0.21-0.21-0.459-0.337-0.726-0.382c-0.269-0.041-0.521-0.011-0.74,0.086
		c-0.229,0.096-0.424,0.26-0.575,0.488c-0.156,0.222-0.234,0.474-0.234,0.742v1.318h-2.653c-0.61,0-1.185-0.126-1.722-0.384
		c-0.535-0.252-0.99-0.621-1.363-1.103C27.265,31.402,26.828,32.219,26.261,32.942L26.261,32.942z"/>
</g>
</svg>
