<svg enable-background="new 0 0 800 800" height="800" viewBox="0 0 800 800" width="800" xmlns="http://www.w3.org/2000/svg"><path d="m208 208h383v383h-383z" fill="#e0e0e0"/><path d="m399.5 49.5c193.3 0 350 156.7 350 350s-156.7 350-350 350-350-156.7-350-350 156.7-350 350-350zm0 307.55-81.3-81.3c-11.723-11.722-30.728-11.722-42.45 0s-11.722 30.728 0 42.45l81.3 81.3-81.3 81.3c-11.722 11.723-11.722 30.728 0 42.45s30.728 11.723 42.45 0l81.3-81.3 81.3 81.3c11.723 11.723 30.728 11.723 42.45 0s11.723-30.728 0-42.45l-81.3-81.3 81.3-81.3c11.723-11.723 11.723-30.728 0-42.45s-30.728-11.722-42.45 0z"/></svg>