<?xml version="1.0" encoding="utf-8"?>
<!-- Generator: Adobe Illustrator 13.0.0, SVG Export Plug-In . SVG Version: 6.00 Build 14948)  -->
<!DOCTYPE svg PUBLIC "-//W3C//DTD SVG 1.1//EN" "http://www.w3.org/Graphics/SVG/1.1/DTD/svg11.dtd">
<svg version="1.1" id="Layer_1" xmlns="http://www.w3.org/2000/svg" xmlns:xlink="http://www.w3.org/1999/xlink" x="0px" y="0px"
	 width="800px" height="800px" viewBox="0 0 800 800" enable-background="new 0 0 800 800" xml:space="preserve">
<rect x="208" y="208" fill="#E0E0E0" width="383" height="383"/>
<path d="M399.5,49.5c193.3,0,350,156.7,350,350s-156.7,350-350,350s-350-156.7-350-350S206.2,49.5,399.5,49.5z M399.5,357.05
	l-81.3-81.3c-11.723-11.722-30.728-11.722-42.45,0s-11.722,30.728,0,42.45l81.3,81.3l-81.3,81.3
	c-11.722,11.723-11.722,30.728,0,42.45s30.728,11.723,42.45,0l81.3-81.3l81.3,81.3c11.723,11.723,30.728,11.723,42.45,0
	s11.723-30.728,0-42.45l-81.3-81.3l81.3-81.3c11.723-11.723,11.723-30.728,0-42.45s-30.728-11.722-42.45,0L399.5,357.05z"/>
</svg>
