<svg enable-background="new 0 0 45 45" height="45" viewBox="0 0 45 45" width="45" xmlns="http://www.w3.org/2000/svg"><path d="m29.125 19.75c0 1.035-.84 1.875-1.875 1.875h-15c-1.035 0-1.875-.84-1.875-1.875v-15c0-1.035.84-1.875 1.875-1.875h15c1.035 0 1.875.84 1.875 1.875zm-1.875-18.75h-15c-2.07 0-3.75 1.679-3.75 3.75v15c0 2.071 1.68 3.75 3.75 3.75h15c2.07 0 3.75-1.679 3.75-3.75v-15c0-2.071-1.68-3.75-3.75-3.75zm-5.625 26.25c0 1.035-.84 1.875-1.875 1.875h-15c-1.035 0-1.875-.84-1.875-1.875v-15c0-1.035.84-1.875 1.875-1.875h1.875v-1.875h-1.875c-2.07 0-3.75 1.679-3.75 3.75v15c0 2.071 1.68 3.75 3.75 3.75h15c2.07 0 3.75-1.679 3.75-3.75v-1.875h-1.875z" fill="#fff"/><circle cx="28" cy="28" fill="#fff" r="15" stroke="#000" stroke-width="2"/><path d="m17.375 33.303c0 .37.132.684.382.957.255.27.577.393.957.381h1.318c.903 0 1.776-.175 2.589-.529.827-.358 1.531-.832 2.107-1.428.582-.593 1.056-1.306 1.422-2.125.363-.824.55-1.678.531-2.567 0-1.101.383-2.035 1.146-2.808.763-.785 1.707-1.172 2.83-1.172h2.652v1.322c0 .291.086.549.258.762.171.211.354.369.572.463.213.103.459.129.74.09.289-.047.521-.166.703-.356l2.658-2.658c.27-.286.393-.604.383-.957-.016-.354-.145-.66-.383-.936l-2.658-2.652c-.21-.201-.459-.32-.727-.367-.269-.039-.521-.01-.739.088-.228.102-.416.258-.575.465-.154.219-.232.459-.232.75v1.334h-2.652c-.896 0-1.752.176-2.572.529-.82.352-1.525.828-2.131 1.404-.589.58-1.063 1.291-1.416 2.127-.354.828-.525 1.692-.516 2.574 0 1.098-.389 2.048-1.162 2.819-.785.785-1.72 1.172-2.83 1.172h-1.318c-.371 0-.683.127-.957.385-.267.251-.39.56-.38.933zm0-10.606c0 .372.132.682.382.936.255.246.577.383.957.383h1.318c.621 0 1.194.137 1.722.406.526.268.983.641 1.381 1.096.297-.896.735-1.717 1.317-2.438-1.291-1.148-2.762-1.723-4.42-1.723h-1.318c-.371 0-.683.137-.957.406-.269.268-.392.583-.382.934zm8.886 10.244c1.261 1.129 2.728 1.701 4.396 1.701h2.653v1.334c0 .285.086.543.258.766.17.229.354.378.574.465.213.088.457.109.737.07.289-.047.521-.166.705-.365l2.658-2.652c.269-.273.392-.585.381-.957-.015-.371-.142-.672-.381-.912l-2.658-2.658c-.21-.209-.459-.336-.726-.381-.27-.041-.521-.012-.74.086-.229.096-.424.26-.575.487-.155.222-.233.474-.233.742v1.317h-2.653c-.61 0-1.185-.125-1.722-.383-.535-.252-.99-.621-1.363-1.104-.306.905-.744 1.722-1.311 2.444z"/></svg>