<?xml version="1.0" encoding="utf-8"?>
<!-- Generator: Adobe Illustrator 13.0.0, SVG Export Plug-In . SVG Version: 6.00 Build 14948)  -->
<!DOCTYPE svg PUBLIC "-//W3C//DTD SVG 1.1//EN" "http://www.w3.org/Graphics/SVG/1.1/DTD/svg11.dtd">
<svg version="1.1" id="Layer_1" xmlns="http://www.w3.org/2000/svg" xmlns:xlink="http://www.w3.org/1999/xlink" x="0px" y="0px"
	 width="45px" height="45px" viewBox="0 0 45 45" enable-background="new 0 0 45 45" xml:space="preserve">
<path fill="#FFFFFF" d="M29.125,19.75c0,1.035-0.84,1.875-1.875,1.875h-15c-1.035,0-1.875-0.84-1.875-1.875v-15
	c0-1.035,0.84-1.875,1.875-1.875h15c1.035,0,1.875,0.84,1.875,1.875V19.75L29.125,19.75z M27.25,1h-15C10.18,1,8.5,2.679,8.5,4.75
	v15c0,2.071,1.68,3.75,3.75,3.75h15c2.07,0,3.75-1.679,3.75-3.75v-15C31,2.679,29.32,1,27.25,1L27.25,1z M21.625,27.25
	c0,1.035-0.84,1.875-1.875,1.875h-15c-1.035,0-1.875-0.84-1.875-1.875v-15c0-1.035,0.84-1.875,1.875-1.875h1.875V8.5H4.75
	C2.68,8.5,1,10.179,1,12.25v15C1,29.321,2.68,31,4.75,31h15c2.07,0,3.75-1.679,3.75-3.75v-1.875h-1.875V27.25L21.625,27.25z"/>
<g>
	<circle fill="#FFFFFF" stroke="#000000" stroke-width="2" cx="28" cy="28" r="15"/>
	<path d="M17.375,33.303c0,0.37,0.132,0.684,0.382,0.957c0.255,0.27,0.577,0.393,0.957,0.381h1.318c0.903,0,1.776-0.175,2.589-0.529
		c0.827-0.358,1.531-0.832,2.107-1.428c0.582-0.593,1.056-1.306,1.422-2.125c0.363-0.824,0.55-1.678,0.531-2.567
		c0-1.101,0.383-2.035,1.146-2.808c0.763-0.785,1.707-1.172,2.83-1.172h2.652v1.322c0,0.291,0.086,0.549,0.258,0.762
		c0.171,0.211,0.354,0.369,0.572,0.463c0.213,0.103,0.459,0.129,0.74,0.09c0.289-0.047,0.521-0.166,0.703-0.356l2.658-2.658
		c0.27-0.286,0.393-0.604,0.383-0.957c-0.016-0.354-0.145-0.66-0.383-0.936l-2.658-2.652c-0.21-0.201-0.459-0.32-0.727-0.367
		c-0.269-0.039-0.521-0.01-0.739,0.088c-0.228,0.102-0.416,0.258-0.575,0.465c-0.154,0.219-0.232,0.459-0.232,0.75v1.334h-2.652
		c-0.896,0-1.752,0.176-2.572,0.529c-0.82,0.352-1.525,0.828-2.131,1.404c-0.589,0.58-1.063,1.291-1.416,2.127
		c-0.354,0.828-0.525,1.692-0.516,2.574c0,1.098-0.389,2.048-1.162,2.819c-0.785,0.785-1.72,1.172-2.83,1.172h-1.318
		c-0.371,0-0.683,0.127-0.957,0.385C17.488,32.621,17.365,32.93,17.375,33.303L17.375,33.303z M17.375,22.697
		c0,0.372,0.132,0.682,0.382,0.936c0.255,0.246,0.577,0.383,0.957,0.383h1.318c0.621,0,1.194,0.137,1.722,0.406
		c0.526,0.268,0.983,0.641,1.381,1.096c0.297-0.896,0.735-1.717,1.317-2.438c-1.291-1.148-2.762-1.723-4.42-1.723h-1.318
		c-0.371,0-0.683,0.137-0.957,0.406C17.488,22.031,17.365,22.346,17.375,22.697z M26.261,32.941
		c1.261,1.129,2.728,1.701,4.396,1.701h2.653v1.334c0,0.285,0.086,0.543,0.258,0.766c0.17,0.229,0.354,0.378,0.574,0.465
		c0.213,0.088,0.457,0.109,0.737,0.07c0.289-0.047,0.521-0.166,0.705-0.365l2.658-2.652c0.269-0.273,0.392-0.585,0.381-0.957
		c-0.015-0.371-0.142-0.672-0.381-0.912l-2.658-2.658c-0.21-0.209-0.459-0.336-0.726-0.381c-0.27-0.041-0.521-0.012-0.74,0.086
		c-0.229,0.096-0.424,0.26-0.575,0.487c-0.155,0.222-0.233,0.474-0.233,0.742v1.317h-2.653c-0.61,0-1.185-0.125-1.722-0.383
		c-0.535-0.252-0.99-0.621-1.363-1.104C27.266,31.402,26.828,32.219,26.261,32.941L26.261,32.941z"/>
</g>
</svg>
