<svg enable-background="new 0 0 45 45" height="45" viewBox="0 0 45 45" width="45" xmlns="http://www.w3.org/2000/svg"><path d="m10.131 5.056h23.209m-23.209 8.444h23.209m-23.209 8.444h23.209m-29.84-16.888h.017m-.017 8.444h.017m-.017 8.444h.017" fill="none" stroke="#fff" stroke-linecap="round" stroke-width="5"/><circle cx="28" cy="28" fill="#fff" r="15" stroke="#000" stroke-width="2"/><path d="m17.375 33.303c0 .37.132.683.382.957.255.269.577.392.957.381h1.318c.903 0 1.776-.175 2.589-.529.827-.359 1.532-.832 2.108-1.429.582-.592 1.055-1.305 1.422-2.124.363-.824.549-1.678.531-2.568 0-1.1.383-2.035 1.146-2.807.763-.785 1.707-1.172 2.83-1.172h2.653v1.322c0 .291.085.549.257.762.171.211.354.369.573.463.213.102.459.129.74.09.289-.047.521-.166.703-.357l2.658-2.658c.269-.287.393-.605.383-.957-.015-.354-.144-.66-.383-.936l-2.658-2.652c-.21-.201-.459-.32-.726-.367-.269-.039-.521-.01-.74.088-.228.102-.416.258-.575.465-.154.219-.232.459-.232.75v1.334h-2.653c-.896 0-1.752.176-2.572.529-.821.352-1.526.828-2.131 1.404-.589.58-1.063 1.291-1.416 2.127-.354.828-.525 1.693-.515 2.574 0 1.098-.389 2.048-1.162 2.82-.785.784-1.72 1.171-2.83 1.171h-1.318c-.371 0-.683.128-.957.385-.269.252-.392.561-.382.934zm0-10.606c0 .371.132.682.382.936.255.246.577.383.957.383h1.318c.621 0 1.194.137 1.722.406.526.268.983.641 1.381 1.096.296-.896.735-1.717 1.317-2.438-1.291-1.148-2.762-1.723-4.42-1.723h-1.318c-.371 0-.683.137-.957.406-.269.268-.392.583-.382.934zm8.886 10.245c1.26 1.128 2.727 1.7 4.396 1.7h2.653v1.335c0 .285.086.543.259.765.17.228.354.378.573.465.213.088.457.109.738.07.289-.047.521-.166.705-.365l2.658-2.652c.269-.274.392-.585.381-.957-.015-.372-.142-.672-.381-.912l-2.658-2.658c-.21-.21-.459-.337-.726-.382-.269-.041-.521-.011-.74.086-.229.096-.424.26-.575.488-.156.222-.234.474-.234.742v1.318h-2.653c-.61 0-1.185-.126-1.722-.384-.535-.252-.99-.621-1.363-1.103-.307.904-.744 1.721-1.311 2.444z"/></svg>