<?xml version="1.0" encoding="utf-8"?>
<!-- Generator: Adobe Illustrator 13.0.0, SVG Export Plug-In . SVG Version: 6.00 Build 14948)  -->
<!DOCTYPE svg PUBLIC "-//W3C//DTD SVG 1.1//EN" "http://www.w3.org/Graphics/SVG/1.1/DTD/svg11.dtd">
<svg version="1.1" id="Layer_1" xmlns="http://www.w3.org/2000/svg" xmlns:xlink="http://www.w3.org/1999/xlink" x="0px" y="0px"
	 width="45px" height="45px" viewBox="0 0 45 45" enable-background="new 0 0 45 45" xml:space="preserve">
<path fill="#FFFFFF" d="M0.001,33.716c0,0.785,0.268,1.453,0.813,2.024c0.544,0.569,1.212,0.855,2.022,0.819h2.79
	c1.917,0,3.752-0.384,5.491-1.133c1.738-0.748,3.227-1.756,4.457-3.004c1.229-1.266,2.229-2.763,3.012-4.51
	c0.779-1.729,1.15-3.559,1.128-5.448c0-2.3,0.808-4.286,2.429-5.937c1.623-1.648,3.611-2.469,5.981-2.469h5.625v2.791
	c0,0.625,0.179,1.166,0.535,1.613c0.354,0.453,0.773,0.784,1.22,0.993c0.445,0.208,0.972,0.273,1.577,0.184
	c0.588-0.089,1.098-0.348,1.489-0.769l5.625-5.622c0.552-0.597,0.838-1.274,0.802-2.022c-0.035-0.75-0.303-1.408-0.802-1.979
	L38.57,3.624c-0.464-0.419-0.962-0.678-1.532-0.768c-0.571-0.088-1.098-0.037-1.578,0.179c-0.482,0.214-0.882,0.544-1.221,0.989
	c-0.32,0.455-0.49,0.972-0.49,1.578v2.834h-5.625c-1.89,0-3.698,0.375-5.446,1.123c-1.731,0.75-3.237,1.738-4.5,2.969
	c-1.258,1.229-2.266,2.728-3.014,4.5c-0.749,1.769-1.105,3.583-1.079,5.438c0,2.355-0.82,4.342-2.478,6
	c-1.649,1.64-3.637,2.469-5.981,2.469h-2.79c-0.775,0-1.453,0.269-2.023,0.804C0.243,32.29-0.025,32.95,0.001,33.716L0.001,33.716z
	 M0.001,11.272c0,0.774,0.268,1.435,0.813,1.979c0.544,0.535,1.212,0.811,2.022,0.811h2.79c1.319,0,2.531,0.287,3.646,0.856
	c1.104,0.571,2.085,1.347,2.923,2.336c0.633-1.917,1.56-3.646,2.79-5.17c-2.729-2.435-5.848-3.646-9.359-3.646h-2.79
	c-0.775,0-1.453,0.285-2.022,0.854C0.243,9.862-0.025,10.522,0.001,11.272z M18.809,32.959c2.675,2.407,5.767,3.602,9.314,3.602
	h5.625v2.824c0,0.606,0.179,1.142,0.535,1.622c0.354,0.481,0.773,0.82,1.22,0.999s0.972,0.223,1.577,0.134
	c0.588-0.089,1.098-0.349,1.489-0.775l5.625-5.623c0.552-0.571,0.838-1.239,0.802-2.024c-0.035-0.766-0.303-1.416-0.802-1.934
	l-5.625-5.625c-0.464-0.445-0.962-0.713-1.532-0.801c-0.571-0.091-1.098-0.037-1.578,0.177c-0.482,0.215-0.882,0.563-1.221,1.044
	c-0.32,0.463-0.49,0.988-0.49,1.559v2.8h-5.625c-1.283,0-2.504-0.268-3.646-0.819c-1.141-0.535-2.103-1.319-2.871-2.335
	C20.945,29.706,20.009,31.426,18.809,32.959L18.809,32.959z"/>
</svg>
