<svg fill="#494949" height="800" viewBox="0 0 512 512" width="800" xmlns="http://www.w3.org/2000/svg"><path d="m501.333 128h-53.333v-42.667c0-5.867-4.8-10.667-10.667-10.667h-218.026l-30.72-29.12c-2.027-1.92-4.587-2.88-7.36-2.88h-170.56c-5.867.001-10.667 4.801-10.667 10.667v354.667c0 34.347 28.16 61.333 64 61.333h371.093c40.96 0 76.907-36.267 76.907-77.547v-253.12c0-5.866-4.8-10.666-10.667-10.666zm-394.666 10.667v269.333c0 23.573-17.493 40-42.667 40-24.32 0-42.667-17.173-42.667-40v-344h155.627l30.72 29.12c2.027 1.92 4.587 2.88 7.36 2.88h211.627v32h-309.334c-5.866 0-10.666 4.8-10.666 10.667zm384 253.12c0 29.44-26.56 56.213-55.573 56.213h-321.387c9.066-10.56 14.293-24.32 14.293-40v-258.667h362.667z"/><path d="m221.653 394.027c2.133.427 4.373.64 6.613.64 8-.107 15.68-2.56 22.187-7.253 8.747-5.973 14.72-15.253 16.64-25.707l3.307-19.2 1.173-7.04.427-2.56 9.067-53.76 88.32-19.307-6.72 39.467-17.6-3.2c-10.24-1.92-20.8.427-29.227 6.4-8.747 6.08-14.613 15.467-16.32 25.92-3.627 21.547 10.667 42.347 31.893 46.187 2.133.427 4.373.64 6.613.64 8 0 15.787-2.56 22.293-7.253 8.747-5.973 14.72-15.253 16.747-25.707l1.6-9.6 23.573-138.987c.96-5.76-2.88-11.307-8.747-12.267-1.387-.213-2.773-.213-4.053.107l-110.719 24.213c-4.267.96-7.467 4.373-8.213 8.64l-17.707 104.427-17.6-3.2c-10.24-1.92-20.693.427-29.227 6.4-8.747 6.08-14.613 15.467-16.32 25.92-3.626 21.546 10.774 42.24 32 46.08zm136-64.854-1.6 9.6c-.96 4.8-3.84 8.96-7.893 11.733-3.627 2.667-8.32 3.84-12.8 3.093-10.027-2.027-16.533-11.627-14.72-21.653.747-4.8 3.413-9.173 7.467-12.053 2.88-2.027 6.4-3.2 9.92-3.2 1.067 0 2.133.107 3.2.32l17.92 3.307zm-67.306-104.106 88.32-19.307-5.333 31.467-88.32 19.307zm-79.574 126.4c.747-4.8 3.413-9.173 7.467-12.053 2.88-2.027 6.4-3.2 10.027-3.2 1.067 0 2.133.107 3.2.32l17.92 3.307-3.093 18.347c-.96 4.8-3.84 8.96-7.893 11.733-3.627 2.773-8.32 3.84-12.8 3.093-10.028-2.027-16.534-11.627-14.828-21.547z"/></svg>