<svg fill="#494949" height="800" viewBox="0 0 512 512" width="800" xmlns="http://www.w3.org/2000/svg"><path d="m447.147 134.613c-.533-1.28-1.28-2.453-2.347-3.413l-128-128c-1.92-2.027-4.693-3.2-7.467-3.2h-234.666c-5.867 0-10.667 4.8-10.667 10.667v490.667c0 5.866 4.8 10.666 10.667 10.666h362.667c5.866 0 10.666-4.8 10.666-10.667v-362.666c0-1.387-.32-2.774-.853-4.054zm-127.147-98.24 91.627 91.627h-91.627zm106.667 454.294h-341.334v-469.334h213.333v117.333c0 5.867 4.8 10.667 10.667 10.667h117.333v341.334z"/><path d="m217.28 235.52-17.813 104.32-17.6-3.2c-10.24-1.92-20.693.427-29.227 6.4-8.747 6.08-14.613 15.467-16.32 25.92-3.627 21.547 10.667 42.347 31.893 46.187 2.133.427 4.373.64 6.613.64 8-.107 15.787-2.56 22.187-7.253 8.747-5.973 14.72-15.253 16.64-25.707l4.373-25.92 9.6-56.64 88.32-19.307-6.72 39.467-17.6-3.2c-10.24-1.92-20.8.427-29.227 6.4-8.64 6.08-14.507 15.36-16.213 25.813-3.627 21.547 10.667 42.347 31.893 46.187 2.133.427 4.373.64 6.613.64 8 0 15.787-2.56 22.293-7.253 8.747-5.973 14.72-15.253 16.64-25.707l1.6-9.6 23.575-138.774c.64-3.733-.533-7.573-3.413-10.027-2.453-2.133-5.973-2.987-9.173-2.24l-110.72 24.213c-4.267.961-7.467 4.374-8.214 8.641zm-24.427 144c-.96 4.8-3.84 8.96-7.893 11.733-3.627 2.667-8.32 3.84-12.8 3.093-10.027-2.027-16.533-11.627-14.72-21.653.747-4.8 3.413-9.173 7.467-12.053 2.88-2.027 6.4-3.2 9.92-3.2 1.067 0 2.133.107 3.2.32l17.92 3.307zm109.547-19.413c-1.173 4.8-3.947 9.067-8 11.84-3.627 2.773-8.32 3.84-12.8 3.093-10.027-2.027-16.533-11.627-14.72-21.653.747-4.8 3.413-9.173 7.467-12.053 2.88-2.027 6.4-3.2 10.027-3.2 1.067 0 2.133.107 3.2.32l17.92 3.307zm-65.387-113.707 88.32-19.307-5.333 31.467-88.32 19.307z"/></svg>