<?xml version="1.0" encoding="iso-8859-1"?>
<!-- Uploaded to: SVG Repo, www.svgrepo.com, Generator: SVG Repo Mixer Tools -->
<svg fill="#494949" height="800px" width="800px" version="1.1" id="Layer_1" xmlns="http://www.w3.org/2000/svg" xmlns:xlink="http://www.w3.org/1999/xlink" 
	 viewBox="0 0 512 512" xml:space="preserve">
<g>
	<g>
		<g>
			<path d="M501.333,128H448V85.333c0-5.867-4.8-10.667-10.667-10.667H219.307l-30.72-29.12c-2.027-1.92-4.587-2.88-7.36-2.88
				H10.667C4.8,42.667,0,47.467,0,53.333V408c0,34.347,28.16,61.333,64,61.333h371.093c40.96,0,76.907-36.267,76.907-77.547v-253.12
				C512,132.8,507.2,128,501.333,128z M106.667,138.667V408c0,23.573-17.493,40-42.667,40c-24.32,0-42.667-17.173-42.667-40V64
				H176.96l30.72,29.12c2.027,1.92,4.587,2.88,7.36,2.88h211.627v32H117.333C111.467,128,106.667,132.8,106.667,138.667z
				 M490.667,391.787c0,29.44-26.56,56.213-55.573,56.213H113.707C122.773,437.44,128,423.68,128,408V149.333h362.667V391.787z"/>
			<path d="M221.653,394.027c2.133,0.427,4.373,0.64,6.613,0.64c8-0.107,15.68-2.56,22.187-7.253
				c8.747-5.973,14.72-15.253,16.64-25.707l3.307-19.2l1.173-7.04l0.427-2.56l9.067-53.76l88.32-19.307l-6.72,39.467l-17.6-3.2
				c-10.24-1.92-20.8,0.427-29.227,6.4c-8.747,6.08-14.613,15.467-16.32,25.92c-3.627,21.547,10.667,42.347,31.893,46.187
				c2.133,0.427,4.373,0.64,6.613,0.64c8,0,15.787-2.56,22.293-7.253c8.747-5.973,14.72-15.253,16.747-25.707l1.6-9.6
				l23.573-138.987c0.96-5.76-2.88-11.307-8.747-12.267c-1.387-0.213-2.773-0.213-4.053,0.107L278.72,205.76
				c-4.267,0.96-7.467,4.373-8.213,8.64L252.8,318.827l-17.6-3.2c-10.24-1.92-20.693,0.427-29.227,6.4
				c-8.747,6.08-14.613,15.467-16.32,25.92C186.027,369.493,200.427,390.187,221.653,394.027z M357.653,329.173l-1.6,9.6
				c-0.96,4.8-3.84,8.96-7.893,11.733c-3.627,2.667-8.32,3.84-12.8,3.093c-10.027-2.027-16.533-11.627-14.72-21.653
				c0.747-4.8,3.413-9.173,7.467-12.053c2.88-2.027,6.4-3.2,9.92-3.2c1.067,0,2.133,0.107,3.2,0.32l17.92,3.307L357.653,329.173z
				 M290.347,225.067l88.32-19.307l-5.333,31.467l-88.32,19.307L290.347,225.067z M210.773,351.467
				c0.747-4.8,3.413-9.173,7.467-12.053c2.88-2.027,6.4-3.2,10.027-3.2c1.067,0,2.133,0.107,3.2,0.32l17.92,3.307l-3.093,18.347
				c-0.96,4.8-3.84,8.96-7.893,11.733c-3.627,2.773-8.32,3.84-12.8,3.093C215.573,370.987,209.067,361.387,210.773,351.467z"/>
		</g>
	</g>
</g>
</svg>