<svg fill="none" height="800" viewBox="0 0 24 24" width="800" xmlns="http://www.w3.org/2000/svg"><g fill="#fff"><path clip-rule="evenodd" d="m2.25 6c0-.41421.33579-.75.75-.75h18c.4142 0 .75.33579.75.75s-.3358.75-.75.75h-18c-.41421 0-.75-.33579-.75-.75zm0 4c0-.41421.33579-.75.75-.75h18c.4142 0 .75.33579.75.75 0 .4142-.3358.75-.75.75h-18c-.41421 0-.75-.3358-.75-.75zm0 4c0-.4142.33579-.75.75-.75h8c.4142 0 .75.3358.75.75s-.3358.75-.75.75h-8c-.41421 0-.75-.3358-.75-.75zm0 4c0-.4142.33579-.75.75-.75h8c.4142 0 .75.3358.75.75s-.3358.75-.75.75h-8c-.41421 0-.75-.3358-.75-.75z" fill-rule="evenodd"/><path d="m18.875 14.1184c1.6538.9549 2.4808 1.4323 2.6022 2.1211.0304.1723.0304.3487 0 .521-.1214.6888-.9484 1.1662-2.6022 2.1211-1.6538.9548-2.4808 1.4322-3.138 1.193-.1645-.0598-.3171-.148-.4512-.2605-.5358-.4496-.5358-1.4044-.5358-3.3141s0-2.8645.5358-3.3141c.1341-.1125.2867-.2007.4512-.2605.6572-.2392 1.4842.2382 3.138 1.193z"/></g></svg>