<?xml version="1.0" encoding="utf-8"?>
<!-- Generator: Adobe Illustrator 13.0.0, SVG Export Plug-In . SVG Version: 6.00 Build 14948)  -->
<!DOCTYPE svg PUBLIC "-//W3C//DTD SVG 1.1//EN" "http://www.w3.org/Graphics/SVG/1.1/DTD/svg11.dtd">
<svg version="1.1" id="Layer_1" xmlns="http://www.w3.org/2000/svg" xmlns:xlink="http://www.w3.org/1999/xlink" x="0px" y="0px"
	 width="800px" height="800px" viewBox="0 0 800 800" enable-background="new 0 0 800 800" xml:space="preserve">
<path fill="#FFFFFF" d="M0,600c0,13.866,4.8,25.867,14.4,36c9.6,10.134,21.6,14.934,36,14.4H100c34.133,0,66.667-6.667,97.6-20
	c30.933-13.334,57.333-31.2,79.2-53.601c21.867-22.399,39.733-49.066,53.601-80c13.866-30.933,20.533-63.2,20-96.8
	c0-41.066,14.399-76.267,43.199-105.6c28.801-29.333,64.267-44,106.4-44h100V300c0,11.2,3.2,20.8,9.6,28.8
	c6.4,8,13.601,13.867,21.601,17.6c8,3.733,17.333,4.8,28,3.2s19.467-6.133,26.399-13.6l100-100c10.134-10.667,14.934-22.667,14.4-36
	c-0.533-13.333-5.333-25.066-14.4-35.2l-100-100c-8-7.467-17.066-12-27.199-13.6c-10.134-1.6-19.467-0.533-28,3.2
	C621.866,58.133,614.667,64,608.8,72c-5.866,8-8.8,17.333-8.8,28v50.4H500c-33.6,0-65.866,6.667-96.8,20
	c-30.934,13.333-57.601,30.934-80,52.8c-22.4,21.867-40.267,48.533-53.6,80c-13.333,31.467-19.733,63.733-19.2,96.8
	c0,41.6-14.667,77.066-44,106.4c-29.333,29.333-64.8,44-106.4,44H50.4c-13.867,0-25.867,4.8-36,14.399
	C4.267,574.4-0.533,586.134,0,600L0,600z M0,200.8c0,13.867,4.8,25.6,14.4,35.2s21.6,14.4,36,14.4H100
	c23.467,0,45.067,5.067,64.8,15.2c19.733,10.133,37.067,24,52,41.6c11.2-34.133,27.733-64.8,49.6-92
	c-48.533-43.2-104-64.8-166.4-64.8H50.4c-13.867,0-25.867,5.067-36,15.2S-0.533,187.467,0,200.8z M334.4,586.4
	c47.466,42.666,102.666,64,165.6,64h100V700.8c0,10.667,3.2,20.267,9.6,28.8C616,738.134,623.2,744,631.2,747.2s17.333,4,28,2.399
	c10.667-1.6,19.467-6.133,26.399-13.6l100-100c10.134-10.133,14.934-22.134,14.4-36s-5.333-25.333-14.4-34.4l-100-100
	c-8-8-17.066-12.8-27.199-14.399c-10.134-1.601-19.467-0.533-28,3.2c-8.534,3.733-15.733,9.866-21.601,18.399
	c-5.866,8.533-8.8,17.867-8.8,28V550.4H500c-22.934,0-44.533-4.801-64.8-14.4s-37.333-23.467-51.2-41.6
	C372.267,528.533,355.733,559.2,334.4,586.4L334.4,586.4z"/>
</svg>
