<?xml version="1.0" encoding="utf-8"?>
<!-- Generator: Adobe Illustrator 13.0.0, SVG Export Plug-In . SVG Version: 6.00 Build 14948)  -->
<!DOCTYPE svg PUBLIC "-//W3C//DTD SVG 1.1//EN" "http://www.w3.org/Graphics/SVG/1.1/DTD/svg11.dtd">
<svg version="1.1" id="Layer_1" xmlns="http://www.w3.org/2000/svg" xmlns:xlink="http://www.w3.org/1999/xlink" x="0px" y="0px"
	 width="100px" height="100px" viewBox="-6 0 100 100" enable-background="new -6 0 100 100" xml:space="preserve">
<title>refresh</title>
<path fill="#FFFFFF" d="M78.97,54.881H91.5c0,10.934-4.129,21.984-12.259,30.121c-16.393,16.392-43.052,16.392-59.447,0
	c-16.392-16.387-16.392-43.043,0-59.443c7.463-7.463,17.192-11.46,27.062-12.128V1.705L78.97,20.228L46.855,38.885V25.963
	c-6.671,0.535-13.067,3.466-18.132,8.53c-11.596,11.462-11.596,30.12,0,41.583c11.465,11.592,30.124,11.592,41.588,0
	C76.174,70.344,79.104,62.476,78.97,54.881z"/>
</svg>
