<svg fill="#494949" height="800" viewBox="0 0 32 32" width="800" xmlns="http://www.w3.org/2000/svg"><path d="m0 24q0 .832.576 1.44t1.44.576h1.984q2.048 0 3.904-.8t3.168-2.144 2.144-3.2.8-3.872q0-2.464 1.728-4.224t4.256-1.76h4v1.984q0 .672.384 1.152t.864.704 1.12.128 1.056-.544l4-4q.608-.64.576-1.44t-.576-1.408l-4-4q-.48-.448-1.088-.544t-1.12.128-.864.704-.352 1.12v2.016h-4q-2.016 0-3.872.8t-3.2 2.112-2.144 3.2-.768 3.872q0 2.496-1.76 4.256t-4.256 1.76h-1.984q-.832 0-1.44.576t-.576 1.408zm0-15.968q0 .832.576 1.408t1.44.576h1.984q1.408 0 2.592.608t2.08 1.664q.672-2.048 1.984-3.68-2.912-2.592-6.656-2.592h-1.984q-.832 0-1.44.608t-.576 1.408zm13.376 15.424q2.848 2.56 6.624 2.56h4v2.016q0 .64.384 1.152t.864.704 1.12.096 1.056-.544l4-4q.608-.608.576-1.44t-.576-1.376l-4-4q-.48-.48-1.088-.576t-1.12.128-.864.736-.352 1.12v1.984h-4q-1.376 0-2.592-.576t-2.048-1.664q-.704 2.048-1.984 3.68z"/></svg>