<?xml version="1.0" standalone="no"?>
<!DOCTYPE svg PUBLIC "-//W3C//DTD SVG 20010904//EN"
 "http://www.w3.org/TR/2001/REC-SVG-20010904/DTD/svg10.dtd">
<svg version="1.0" xmlns="http://www.w3.org/2000/svg"
 width="710.000000pt" height="710.000000pt" viewBox="0 0 710.000000 710.000000"
 preserveAspectRatio="xMidYMid meet">
<metadata>
Created by potrace 1.14, written by Peter Selinger 2001-2017
</metadata>
<g transform="translate(0.000000,710.000000) scale(0.100000,-0.100000)"
fill="#000000" stroke="none">
<path d="M3429 6885 c-2 -2 -47 -6 -99 -10 -52 -3 -108 -8 -125 -10 -16 -2
-75 -6 -130 -9 -55 -4 -118 -9 -140 -11 -22 -2 -80 -7 -130 -10 -49 -4 -110
-9 -135 -11 -25 -2 -85 -6 -135 -10 -49 -3 -106 -7 -125 -9 -19 -2 -78 -7
-130 -10 -52 -4 -113 -9 -135 -11 -22 -2 -76 -6 -120 -9 -44 -3 -105 -8 -135
-10 -30 -3 -86 -7 -125 -10 -38 -3 -99 -8 -135 -10 -108 -9 -171 -14 -255 -20
-44 -3 -107 -7 -140 -10 -33 -3 -89 -7 -125 -10 -36 -3 -92 -7 -125 -10 -33
-3 -94 -7 -135 -10 -41 -3 -104 -8 -140 -11 -36 -3 -87 -7 -115 -9 -74 -6
-214 -16 -260 -20 -85 -6 -241 -18 -265 -20 -14 -2 -31 -3 -38 -4 -10 -1 -12
-15 -8 -58 3 -32 8 -94 11 -138 3 -44 8 -102 10 -130 2 -27 7 -86 10 -130 3
-44 8 -102 10 -130 3 -27 7 -86 10 -130 3 -44 8 -102 10 -130 2 -27 7 -86 10
-130 6 -90 12 -170 20 -265 3 -36 7 -96 10 -135 3 -38 7 -92 10 -120 2 -27 7
-95 10 -150 3 -55 8 -111 10 -125 2 -14 7 -72 10 -130 3 -58 8 -116 10 -130 2
-14 7 -72 10 -130 3 -58 8 -121 10 -140 2 -19 7 -73 10 -120 3 -47 8 -107 10
-135 2 -27 7 -88 10 -135 3 -47 7 -110 10 -140 2 -30 7 -89 10 -130 3 -41 7
-100 10 -130 2 -30 7 -88 10 -127 8 -117 16 -215 20 -263 2 -25 7 -88 10 -140
3 -52 8 -111 10 -130 2 -19 7 -82 10 -140 4 -58 8 -116 10 -130 2 -14 6 -68
10 -120 3 -52 8 -113 10 -135 2 -22 7 -87 10 -145 5 -86 10 -108 25 -121 11
-9 88 -57 172 -105 193 -112 173 -101 270 -158 46 -27 164 -96 263 -153 99
-58 204 -121 232 -139 29 -19 55 -34 57 -34 5 0 141 -79 303 -177 40 -23 75
-43 77 -43 2 0 28 -16 57 -35 30 -19 57 -35 62 -35 4 0 13 -5 20 -10 10 -9
407 -243 622 -368 71 -41 52 -30 375 -220 140 -82 323 -189 405 -237 83 -48
161 -95 175 -104 66 -42 70 -42 160 12 47 27 186 108 310 180 124 71 311 180
415 240 105 61 228 133 275 159 47 27 92 53 100 59 8 5 67 39 130 75 160 93
1215 705 1325 769 50 29 189 110 310 180 121 70 223 130 226 133 7 7 12 64 24
237 3 44 12 159 19 255 8 96 14 182 14 190 0 8 3 49 6 90 19 217 26 313 31
390 3 47 10 137 15 200 10 119 15 195 25 340 3 47 8 101 10 120 2 19 7 78 10
130 3 52 8 120 10 150 11 132 25 312 30 390 3 47 7 105 10 130 6 65 14 174 20
260 7 113 15 211 20 250 2 19 7 85 10 145 4 61 8 121 10 135 2 14 6 70 10 125
4 55 8 118 10 140 2 22 6 81 10 130 3 50 8 108 10 130 3 22 7 80 10 128 3 49
7 112 10 140 29 339 29 347 8 348 -10 0 -26 2 -36 4 -10 2 -67 6 -125 10 -59
3 -118 8 -132 10 -23 4 -137 12 -270 20 -30 2 -82 6 -115 9 -33 3 -94 8 -135
11 -41 3 -106 8 -145 10 -38 3 -95 7 -125 10 -60 5 -131 11 -255 20 -44 3
-102 8 -130 10 -27 3 -88 7 -135 10 -47 3 -105 7 -130 10 -25 2 -83 7 -130 10
-47 3 -109 8 -137 11 -29 2 -88 7 -130 9 -43 3 -98 7 -123 10 -25 2 -85 7
-135 10 -49 4 -110 8 -135 10 -24 3 -83 7 -130 10 -47 3 -101 7 -120 10 -19 2
-80 7 -135 10 -55 4 -116 8 -135 10 -19 2 -75 6 -125 10 -49 4 -112 9 -140 11
-66 7 -312 14 -316 9z"/>
</g>
</svg>
